<?xml version="1.0" encoding="utf-8"?>
<!-- Generator: Adobe Illustrator 19.2.0, SVG Export Plug-In . SVG Version: 6.00 Build 0)  -->
<!DOCTYPE svg PUBLIC "-//W3C//DTD SVG 1.1//EN" "http://www.w3.org/Graphics/SVG/1.1/DTD/svg11.dtd">
<svg version="1.1" id="Layer_1" xmlns="http://www.w3.org/2000/svg" xmlns:xlink="http://www.w3.org/1999/xlink" x="0px" y="0px"
	 viewBox="0 0 1567.5 3180.3" enable-background="new 0 0 1567.5 3180.3" xml:space="preserve">
<g>
	<path fill="#FFFFFF" stroke="#E3E3E3" stroke-width="10" stroke-miterlimit="10" d="M1553.7,629.6c-0.5,0.3-0.9,0.7-1.2,1.2
		c-1.1,1.3-1.8,3-1.8,4.8v186.5c0,0.6,0.1,1.2,0.2,1.8c0.3,1.1,0.8,2.2,1.5,3c0.4,0.4,0.8,0.8,1.2,1.2"/>
	<path fill="#FFFFFF" stroke="#E3E3E3" stroke-width="10" stroke-miterlimit="10" d="M13.8,512.5V393.2V512.5z M17.2,1064.4l0-193.9
		L17.2,1064.4z M17.2,825.8l0-193.9L17.2,825.8z"/>
	<path fill="#FFFFFF" stroke="#E3E3E3" stroke-width="10" stroke-miterlimit="10" d="M1435.3,3141c5.8-2.5,11.5-5.2,16.9-8.2
		C1446.8,3135.8,1441.1,3138.6,1435.3,3141z"/>
	<path fill="#FFFFFF" stroke="#E3E3E3" stroke-width="10" stroke-miterlimit="10" d="M17.5,217.9c0-50.2,19.1-95.9,50.4-130.3
		C36.6,122,17.5,167.8,17.5,217.9v2744.5c0,33.5,8.5,64.9,23.4,92.4c-14.9-27.5-23.4-58.9-23.4-92.4V217.9z"/>
	<path fill="#FFFFFF" stroke="#E3E3E3" stroke-width="10" stroke-miterlimit="10" d="M1398.9,3152.3c6.3-1.3,12.5-2.9,18.6-4.8
		C1411.4,3149.4,1405.2,3151,1398.9,3152.3z"/>
	<path fill="#FFFFFF" stroke="#E3E3E3" stroke-width="10" stroke-miterlimit="10" d="M1359.9,3156.3L1359.9,3156.3
		c13.4,0,26.5-1.4,39.1-3.9C1386.3,3154.9,1373.2,3156.3,1359.9,3156.3z"/>
	<path fill="#FFFFFF" stroke="#E3E3E3" stroke-width="10" stroke-miterlimit="10" d="M1468.3,3123.1c5.2-3.5,10.1-7.2,14.9-11.2
		C1478.4,3115.9,1473.4,3119.7,1468.3,3123.1z"/>
	<path fill="#FFFFFF" stroke="#E3E3E3" stroke-width="10" stroke-miterlimit="10" d="M1359.9,24.1L1359.9,24.1
		c6.7,0,13.3,0.3,19.8,1C1373.2,24.4,1366.5,24.1,1359.9,24.1z"/>
	<path fill="#FFFFFF" stroke="#E3E3E3" stroke-width="10" stroke-miterlimit="10" d="M1550.8,635.5c0-1.8,0.7-3.5,1.8-4.8
		C1551.4,632.1,1550.8,633.7,1550.8,635.5z"/>
	<path fill="#FFFFFF" stroke="#E3E3E3" stroke-width="10" stroke-miterlimit="10" d="M1550.8,822.1c0,0.6,0.1,1.2,0.2,1.8
		C1550.8,823.3,1550.8,822.7,1550.8,822.1L1550.8,822.1z"/>
	<path fill="#FFFFFF" stroke="#E3E3E3" stroke-width="10" stroke-miterlimit="10" d="M1497,3099.5c4.4-4.4,8.6-9,12.5-13.8
		C1505.5,3090.5,1501.3,3095.1,1497,3099.5z"/>
	<path fill="#FFFFFF" stroke="#E3E3E3" stroke-width="10" stroke-miterlimit="10" d="M119,47.5c8.2-4.5,16.8-8.4,25.8-11.6
		C135.8,39.1,127.2,43,119,47.5z"/>
	<path fill="#FFFFFF" stroke="#E3E3E3" stroke-width="10" stroke-miterlimit="10" d="M153.7,32.8c6.1-1.9,12.3-3.5,18.6-4.8
		C166,29.3,159.8,30.9,153.7,32.8z"/>
	<path fill="#FFFFFF" stroke="#E3E3E3" stroke-width="10" stroke-miterlimit="10" d="M119,3132.9c-5.5-3-10.8-6.2-16-9.7
		C108.1,3126.6,113.5,3129.9,119,3132.9z"/>
	<path fill="#FFFFFF" stroke="#E3E3E3" stroke-width="10" stroke-miterlimit="10" d="M61.8,3085.7c-7.9-9.6-14.9-19.9-20.9-30.9
		C46.9,3065.8,53.9,3076.1,61.8,3085.7z"/>
	<path fill="#FFFFFF" stroke="#E3E3E3" stroke-width="10" stroke-miterlimit="10" d="M110.8,52.1c-16,9.7-30.5,21.7-43,35.5
		C80.4,73.8,94.8,61.9,110.8,52.1z"/>
	<path fill="#FFFFFF" stroke="#E3E3E3" stroke-width="10" stroke-miterlimit="10" d="M1520.6,109.5c-3.5-5.2-7.2-10.1-11.2-14.9
		C1513.4,99.4,1517.1,104.4,1520.6,109.5z"/>
	<path fill="#FFFFFF" stroke="#E3E3E3" stroke-width="10" stroke-miterlimit="10" d="M1534.6,133.9c-2.7-5.6-5.7-11.1-9-16.5
		C1528.9,122.7,1531.9,128.2,1534.6,133.9z"/>
	<path fill="#FFFFFF" stroke="#E3E3E3" stroke-width="10" stroke-miterlimit="10" d="M1475.8,62.6c12.4,9.3,23.7,20.1,33.6,32
		C1499.6,82.6,1488.3,71.9,1475.8,62.6z"/>
	<path fill="#FFFFFF" stroke="#E3E3E3" stroke-width="10" stroke-miterlimit="10" d="M162.9,3150.2c-6.2-1.6-12.3-3.5-18.2-5.7
		C150.7,3146.7,156.7,3148.6,162.9,3150.2z"/>
	<path fill="#FFFFFF" stroke="#E3E3E3" stroke-width="10" stroke-miterlimit="10" d="M1475.8,62.6c-5-3.7-10.1-7.2-15.5-10.4
		C1465.7,55.4,1470.9,58.9,1475.8,62.6z"/>
	<path fill="#FFFFFF" stroke="#E3E3E3" stroke-width="10" stroke-miterlimit="10" d="M1549.8,178.9c-1.3-6.3-2.9-12.5-4.8-18.6
		C1546.9,166.4,1548.5,172.6,1549.8,178.9z"/>
	<path fill="#FFFFFF" stroke="#E3E3E3" stroke-width="10" stroke-miterlimit="10" d="M1552.5,826.9c-0.7-0.9-1.3-1.9-1.5-3
		C1551.2,825,1551.8,826,1552.5,826.9z"/>
	<path fill="#FFFFFF" stroke="#E3E3E3" stroke-width="10" stroke-miterlimit="10" d="M153.7,32.8c-3,0.9-6,2-9,3
		c-8.9,3.3-17.5,7.2-25.8,11.6c-2.7,1.5-5.5,3-8.1,4.7c-16,9.7-30.5,21.7-43,35.5C36.6,122,17.5,167.8,17.5,217.9v2744.5
		c0,33.5,8.5,64.9,23.4,92.4c6,11,13,21.3,20.9,30.9c11.9,14.4,25.7,27,41.2,37.4c5.2,3.5,10.5,6.7,16,9.7
		c8.2,4.5,16.8,8.4,25.8,11.6c5.9,2.2,12,4.1,18.2,5.7c15.5,4,31.7,6.1,48.4,6.1h1148.5c13.4,0,26.5-1.4,39.1-3.9
		c6.3-1.3,12.5-2.9,18.6-4.8c6.1-1.9,12-4.1,17.8-6.5s11.5-5.2,16.9-8.2c5.5-3,10.8-6.2,16-9.7c5.2-3.5,10.1-7.2,14.9-11.2
		c4.8-4,9.4-8.1,13.8-12.5c4.4-4.4,8.6-9,12.5-13.8c27.7-33.5,44.3-76.5,44.3-123.3V828c-0.5-0.3-0.9-0.7-1.2-1.2
		c-0.7-0.9-1.3-1.9-1.5-3c-0.1-0.6-0.2-1.2-0.2-1.8l0,0V635.5c0-1.8,0.7-3.5,1.8-4.8c0.4-0.4,0.8-0.8,1.2-1.2V217.9
		c0-13.4-1.4-26.5-3.9-39.1c-1.3-6.3-2.9-12.5-4.8-18.6c-2.8-9.1-6.3-17.9-10.4-26.4c-2.7-5.6-5.7-11.1-9-16.5
		c-1.6-2.7-3.3-5.3-5-7.9c-3.5-5.2-7.2-10.1-11.2-14.9c-9.9-12-21.2-22.7-33.6-32c-5-3.7-10.1-7.2-15.5-10.4
		c-24-14.6-51.4-24.1-80.7-27.1c-6.5-0.7-13.1-1-19.8-1H211.4c-13.4,0-26.5,1.4-39.1,3.9C166,29.3,159.8,30.9,153.7,32.8z
		 M1359.9,61.4c90.5,0,164,73.5,164,164.1v2729.4c0,90.6-73.4,164.1-164,164.1H211.3c-90.5,0-164-73.5-164-164.1V225.5
		c0-90.6,73.4-164.1,164-164.1H1359.9z"/>
	<path fill="#FFFFFF" stroke="#E3E3E3" stroke-width="10" stroke-miterlimit="10" d="M47.3,225.5v2729.4
		c0,90.6,73.5,164.1,164,164.1h1148.6c90.6,0,164-73.5,164-164.1V225.5c0-90.6-73.5-164.1-164-164.1H211.3
		C120.7,61.4,47.3,134.9,47.3,225.5z M785.6,3074.2c-57.7,0-104.4-46.7-104.4-104.4s46.7-104.4,104.4-104.4
		c57.7,0,104.4,46.7,104.4,104.4S843.3,3074.2,785.6,3074.2z M785.6,113.6c8.2,0,14.9,6.7,14.9,14.9c0,8.2-6.7,14.9-14.9,14.9
		c-8.2,0-14.9-6.7-14.9-14.9C770.7,120.2,777.4,113.6,785.6,113.6z M682.4,212.1c0.8-1.8,1.8-3.4,3.2-4.7c2.7-2.7,6.4-4.3,10.5-4.3
		l0,0h179.1l0,0c1,0,2,0.1,3,0.3c1.9,0.4,3.7,1.2,5.3,2.2c1.6,1.1,2.9,2.4,4,4c1.6,2.4,2.6,5.2,2.6,8.3c0,2.1-0.4,4-1.2,5.8
		c-0.8,1.8-1.8,3.4-3.2,4.7c-2,2-4.6,3.5-7.5,4c-1,0.2-2,0.3-3,0.3l0,0H696.1l0,0c-1,0-2-0.1-3-0.3c-1.3-0.3-2.5-0.8-3.7-1.4
		c-1.4-0.7-2.7-1.6-3.8-2.7c-2-2-3.5-4.6-4.1-7.5c-0.2-1-0.3-2-0.3-3C681.2,215.9,681.6,213.9,682.4,212.1z M578.3,195.6
		c12.4,0,22.4,10,22.4,22.4c0,12.4-10,22.4-22.4,22.4c-12.4,0-22.4-10-22.4-22.4C555.9,205.6,565.9,195.6,578.3,195.6z M107,397
		c0-8.2,6.7-15,14.9-15h1327.5c2.1,0,4,0.4,5.8,1.2c4.5,1.9,7.8,5.9,8.8,10.8c0.2,1,0.3,2,0.3,3l0,0v2386.3l0,0
		c0,8.2-6.7,15-14.9,15H121.9c-3.1,0-6-0.9-8.3-2.6c-0.8-0.5-1.5-1.2-2.2-1.8c-2.7-2.7-4.4-6.4-4.4-10.6V397z"/>
	<circle fill="#FFFFFF" stroke="#E3E3E3" stroke-width="10" stroke-miterlimit="10" cx="578.3" cy="218" r="22.4"/>
	<path fill="#FFFFFF" stroke="#E3E3E3" stroke-width="10" stroke-miterlimit="10" d="M685.6,228.5c-2-2-3.5-4.6-4.1-7.5
		C682.1,223.9,683.6,226.5,685.6,228.5z"/>
	<path fill="#FFFFFF" stroke="#E3E3E3" stroke-width="10" stroke-miterlimit="10" d="M689.4,231.2c-1.4-0.7-2.7-1.6-3.8-2.7
		C686.7,229.6,688,230.5,689.4,231.2z"/>
	<path fill="#FFFFFF" stroke="#E3E3E3" stroke-width="10" stroke-miterlimit="10" d="M696.1,232.9L696.1,232.9c-1,0-2-0.1-3-0.3
		C694,232.8,695,232.9,696.1,232.9z"/>
	<path fill="#FFFFFF" stroke="#E3E3E3" stroke-width="10" stroke-miterlimit="10" d="M888.9,223.8c-0.8,1.8-1.8,3.4-3.2,4.7
		C887,227.2,888.1,225.6,888.9,223.8z"/>
	<path fill="#FFFFFF" stroke="#E3E3E3" stroke-width="10" stroke-miterlimit="10" d="M875.2,232.9c1,0,2-0.1,3-0.3
		C877.2,232.8,876.2,232.9,875.2,232.9L875.2,232.9z"/>
	<path fill="#FFFFFF" stroke="#E3E3E3" stroke-width="10" stroke-miterlimit="10" d="M878.1,203.4c1.9,0.4,3.7,1.2,5.3,2.2
		C881.9,204.5,880.1,203.8,878.1,203.4z"/>
	<path fill="#FFFFFF" stroke="#E3E3E3" stroke-width="10" stroke-miterlimit="10" d="M693.1,232.6c-1.3-0.3-2.5-0.8-3.7-1.4
		C690.6,231.8,691.8,232.3,693.1,232.6z"/>
	<path fill="#FFFFFF" stroke="#E3E3E3" stroke-width="10" stroke-miterlimit="10" d="M887.5,209.6c-1.1-1.6-2.4-3-4-4
		C885,206.7,886.4,208,887.5,209.6z"/>
	<path fill="#FFFFFF" stroke="#E3E3E3" stroke-width="10" stroke-miterlimit="10" d="M875.2,203L875.2,203c1,0,2,0.1,3,0.3
		C877.2,203.2,876.2,203,875.2,203z"/>
	<path fill="#FFFFFF" stroke="#E3E3E3" stroke-width="10" stroke-miterlimit="10" d="M682.4,212.1c0.8-1.8,1.8-3.4,3.2-4.7
		C684.2,208.7,683.1,210.3,682.4,212.1z"/>
	<path fill="#FFFFFF" stroke="#E3E3E3" stroke-width="10" stroke-miterlimit="10" d="M696.1,203c-4.1,0-7.8,1.7-10.5,4.3
		C688.2,204.7,692,203,696.1,203L696.1,203z"/>
	<path fill="#FFFFFF" stroke="#E3E3E3" stroke-width="10" stroke-miterlimit="10" d="M685.6,228.5c1.1,1.1,2.4,2,3.8,2.7
		c1.2,0.6,2.4,1.1,3.7,1.4c1,0.2,2,0.3,3,0.3h179.1c1,0,2-0.1,3-0.3c2.9-0.6,5.5-2,7.5-4c1.3-1.3,2.4-3,3.2-4.7
		c0.8-1.8,1.2-3.8,1.2-5.8c0-3.1-0.9-6-2.6-8.3c-1.1-1.6-2.4-3-4-4c-1.6-1.1-3.4-1.8-5.3-2.2c-1-0.2-2-0.3-3-0.3H696.1
		c-4.1,0-7.8,1.7-10.5,4.3c-1.3,1.3-2.4,3-3.2,4.7s-1.2,3.8-1.2,5.8c0,1,0.1,2,0.3,3C682.1,223.9,683.6,226.5,685.6,228.5z"/>
	<circle fill="#FFFFFF" stroke="#E3E3E3" stroke-width="10" stroke-miterlimit="10" cx="785.6" cy="128.5" r="14.9"/>
	<path fill="#FFFFFF" stroke="#E3E3E3" stroke-width="10" stroke-miterlimit="10" d="M107,2783.3V397c0-8.2,6.7-15,14.9-15h1327.5
		c2.1,0,4,0.4,5.8,1.2c-1.8-0.8-3.7-1.2-5.8-1.2H121.9c-8.2,0-14.9,6.7-14.9,15V2783.3c0,4.1,1.7,7.9,4.4,10.6
		C108.6,2791.2,107,2787.5,107,2783.3z"/>
	<path fill="#FFFFFF" stroke="#E3E3E3" stroke-width="10" stroke-miterlimit="10" d="M1464.3,397c0-1-0.1-2-0.3-3
		C1464.2,394.9,1464.3,396,1464.3,397L1464.3,397z"/>
	<path fill="#FFFFFF" stroke="#E3E3E3" stroke-width="10" stroke-miterlimit="10" d="M1449.4,2798.3H121.9c-3.1,0-6-0.9-8.3-2.6
		c2.4,1.6,5.2,2.6,8.3,2.6H1449.4c8.2,0,14.9-6.7,14.9-15l0,0C1464.3,2791.6,1457.6,2798.3,1449.4,2798.3z"/>
	<path fill="#FFFFFF" stroke="#E3E3E3" stroke-width="10" stroke-miterlimit="10" d="M785.6,2865.4c-57.7,0-104.4,46.7-104.4,104.4
		s46.7,104.4,104.4,104.4c57.7,0,104.4-46.7,104.4-104.4S843.3,2865.4,785.6,2865.4z M785.6,3059.3c-49.4,0-89.5-40.1-89.5-89.5
		c0-49.4,40.1-89.5,89.5-89.5c49.4,0,89.5,40.1,89.5,89.5C875.1,3019.2,835,3059.3,785.6,3059.3z"/>
	<circle fill="#FFFFFF" stroke="#E3E3E3" stroke-width="10" stroke-miterlimit="10" cx="785.6" cy="2969.8" r="89.5"/>
</g>
<line fill="none" stroke="#E3E3E3" stroke-width="10" stroke-miterlimit="10" x1="13.8" y1="710.2" x2="13.8" y2="590.8"/>
<line fill="none" stroke="#E3E3E3" stroke-width="10" stroke-miterlimit="10" x1="13.8" y1="973" x2="13.8" y2="795.9"/>
<g>
	<path fill="#E84B3F" d="M463.4,1722.8c4.5-26.8,11.3-51.2,19.9-73.2c-15.9-16.7-31.3-36.4-45.6-59.4
		c-13.9,22.4-26.8,48.1-38.3,77.3C420.6,1689.2,442,1707.6,463.4,1722.8z"/>
	<path fill="#E84B3F" d="M463.4,1457.2c22.1-15.7,44.2-28.2,65.9-37.7c0.6-23.1,3.7-47.9,9.9-74.3c-25.7,6-53,15-81.8,27.5
		C456.9,1403.1,459,1431.3,463.4,1457.2z"/>
	<path fill="#E84B3F" d="M916.4,1910.5c-26.8-4.5-51.2-11.3-73.2-19.9c-16.7,15.9-36.4,31.3-59.4,45.6
		c22.4,13.9,48.1,26.8,77.3,38.3C882.8,1953.3,901.2,1931.9,916.4,1910.5z"/>
	<path fill="#E84B3F" d="M651.1,1910.5c-15.8-22.1-28.2-44.2-37.7-65.9c-23.1-0.6-47.9-3.6-74.2-9.8c6,25.7,15,53,27.5,81.7
		C597,1917,625.1,1914.8,651.1,1910.5z"/>
	<path fill="#E84B3F" d="M1104,1722.8c-22.1,15.8-44.2,28.2-65.9,37.7c-0.6,23.1-3.6,47.9-9.8,74.2c25.7-6,52.9-15,81.7-27.5
		C1110.6,1776.9,1108.4,1748.7,1104,1722.8z"/>
	<path fill="#E84B3F" d="M1104.1,1457.2c-4.5,26.9-11.3,51.4-19.9,73.5c15.9,16.7,31.3,36.4,45.6,59.4c14-22.5,26.9-48.2,38.4-77.6
		C1146.9,1490.8,1125.5,1472.4,1104.1,1457.2z"/>
	<path fill="#E84B3F" d="M916.4,1269.9c15.7,22,28.1,44,37.6,65.6c23.1,0.5,47.9,3.6,74.3,9.8c-6-25.6-15-52.8-27.5-81.4
		C970.5,1263.3,942.3,1265.5,916.4,1269.9z"/>
	<path fill="#E84B3F" d="M651.1,1269.8c26.8,4.5,51.2,11.3,73.2,19.9c16.7-15.9,36.4-31.3,59.4-45.6c-22.4-13.9-48.1-26.8-77.3-38.3
		C684.7,1227,666.3,1248.5,651.1,1269.8z"/>
	<path fill="#67D3E5" d="M1104,1722.8c21.4-15.2,42.8-33.6,64-55.4c-11.5-29.2-24.4-54.8-38.3-77.2c-14.3,23-29.6,42.7-45.6,59.4
		C1092.7,1671.7,1099.5,1696.1,1104,1722.8z"/>
	<path fill="#3A3C3C" d="M1168.1,1667.4c-21.2,21.8-42.6,40.2-64,55.4c4.3,25.9,6.5,54,6.1,84.4c27.5-12,56.3-27.2,86.5-46.1
		C1188.7,1726.4,1179,1695.3,1168.1,1667.4z"/>
	<path fill="#3A3C3C" d="M1053.3,1590.2c11.7,17.5,22.2,37.3,30.8,59.4c15.9-16.7,31.3-36.4,45.6-59.4c-14.3-23-29.6-42.7-45.6-59.4
		C1075.5,1552.9,1065.1,1572.6,1053.3,1590.2z"/>
	<path fill="#67D3E5" d="M1104.1,1457.2c4.3-25.9,6.5-54.1,6-84.5c-28.8-12.5-56.1-21.5-81.8-27.5c6.2,26.4,9.3,51.2,9.9,74.3
		C1059.9,1429,1082,1441.5,1104.1,1457.2z"/>
	<path fill="#3A3C3C" d="M1104.1,1457.2c21.4,15.2,42.9,33.6,64,55.4c11-27.9,20.6-59.1,28.6-93.8c-30.2-18.9-59.1-34.1-86.6-46
		C1110.6,1403.1,1108.4,1431.3,1104.1,1457.2z"/>
	<path fill="#3A3C3C" d="M974.3,1399.3c20.7,4.1,42.1,10.7,63.8,20.2c-0.6-23.1-3.7-47.9-9.9-74.3c-26.4-6.2-51.2-9.2-74.3-9.8
		C963.6,1357.2,970.2,1378.6,974.3,1399.3z"/>
	<path fill="#67D3E5" d="M651.1,1910.5c15.3,21.4,33.6,42.8,55.4,64c29.2-11.5,54.8-24.4,77.3-38.3c-23-14.3-42.7-29.6-59.4-45.6
		C702.2,1899.2,677.8,1906,651.1,1910.5z"/>
	<path fill="#3A3C3C" d="M783.8,1859.8c-17.5,11.7-37.3,22.2-59.4,30.8c16.7,15.9,36.4,31.3,59.4,45.6c23-14.3,42.7-29.6,59.4-45.6
		C821.1,1881.9,801.3,1871.5,783.8,1859.8z"/>
	<path fill="#3A3C3C" d="M651.1,1910.5c-25.9,4.3-54,6.5-84.4,6.1c12,27.5,27.2,56.3,46.1,86.5c34.7-8,65.9-17.6,93.8-28.6
		C684.7,1953.3,666.4,1931.9,651.1,1910.5z"/>
	<path fill="#67D3E5" d="M916.4,1910.5c25.9,4.3,54,6.5,84.4,6c12.5-28.8,21.5-56,27.5-81.7c-26.4,6.2-51.2,9.2-74.2,9.8
		C944.6,1866.3,932.2,1888.4,916.4,1910.5z"/>
	<path fill="#3A3C3C" d="M916.5,1910.5c-15.2,21.4-33.6,42.8-55.4,64c27.9,11,59,20.6,93.8,28.6c18.9-30.2,34.1-59.1,46.1-86.5
		C970.5,1917,942.4,1914.8,916.5,1910.5z"/>
	<path fill="#3A3C3C" d="M974.4,1780.8c-4.1,20.7-10.7,42.1-20.2,63.8c23.1-0.6,47.8-3.6,74.2-9.8c6.2-26.4,9.2-51.2,9.8-74.2
		C1016.5,1770.1,995.1,1776.7,974.4,1780.8z"/>
	<path fill="#67D3E5" d="M463.4,1722.8c-4.3,25.9-6.5,54-6,84.4c28.8,12.5,56,21.5,81.7,27.5c-6.2-26.4-9.2-51.2-9.8-74.2
		C507.6,1751,485.5,1738.6,463.4,1722.8z"/>
	<path fill="#3A3C3C" d="M463.5,1722.8c-21.4-15.3-42.8-33.6-64-55.4c-11,27.9-20.6,59-28.6,93.8c30.2,18.9,59.1,34.1,86.5,46.1
		C457,1776.9,459.1,1748.7,463.5,1722.8z"/>
	<path fill="#3A3C3C" d="M593.1,1780.8c-20.7-4.1-42.1-10.7-63.8-20.3c0.6,23.1,3.6,47.9,9.8,74.2c26.4,6.2,51.2,9.2,74.2,9.8
		C603.8,1822.9,597.2,1801.5,593.1,1780.8z"/>
	<path fill="#67D3E5" d="M463.4,1457.2c-21.4,15.2-42.9,33.6-64,55.4c11.5,29.3,24.5,55.1,38.4,77.6c14.3-23,29.6-42.7,45.6-59.4
		C474.7,1508.6,467.9,1484.1,463.4,1457.2z"/>
	<path fill="#3A3C3C" d="M514.2,1590.2c-11.7-17.5-22.2-37.3-30.8-59.4c-15.9,16.7-31.3,36.4-45.6,59.4c14.3,23,29.6,42.7,45.6,59.4
		C492,1627.5,502.4,1607.7,514.2,1590.2z"/>
	<path fill="#3A3C3C" d="M463.4,1457.2c-4.3-25.9-6.5-54.1-6-84.5c-27.5,11.9-56.4,27.1-86.6,46c8,34.8,17.6,65.9,28.6,93.8
		C420.6,1490.8,442,1472.4,463.4,1457.2z"/>
	<path fill="#67D3E5" d="M651.1,1269.8c-25.9-4.3-54-6.5-84.4-6.1c-12.5,28.7-21.5,55.8-27.5,81.4c26.4-6.2,51.2-9.2,74.3-9.8
		C623,1313.9,635.4,1291.9,651.1,1269.8z"/>
	<path fill="#3A3C3C" d="M593.2,1399.3c4.1-20.7,10.7-42.1,20.3-63.8c-23.1,0.5-47.9,3.6-74.3,9.8c-6.2,26.4-9.3,51.2-9.9,74.3
		C551.1,1410,572.5,1403.4,593.2,1399.3z"/>
	<path fill="#3A3C3C" d="M651.1,1269.8c15.3-21.4,33.6-42.8,55.4-64c-27.9-11-59-20.6-93.8-28.6c-18.9,30.2-34.1,59.1-46.1,86.5
		C597.1,1263.3,625.2,1265.5,651.1,1269.8z"/>
	<path fill="#67D3E5" d="M916.4,1269.9c-15.2-21.4-33.6-42.8-55.4-64c-29.2,11.5-54.8,24.4-77.3,38.3c23,14.3,42.7,29.6,59.4,45.6
		C865.3,1281.2,889.7,1274.3,916.4,1269.9z"/>
	<path fill="#3A3C3C" d="M916.4,1269.9c25.9-4.3,54-6.5,84.4-6c-12-27.5-27.2-56.3-46.1-86.5c-34.7,8-65.9,17.6-93.8,28.6
		C882.8,1227,901.2,1248.5,916.4,1269.9z"/>
	<path fill="#3A3C3C" d="M783.8,1320.5c17.5-11.7,37.3-22.2,59.4-30.8c-16.7-15.9-36.4-31.3-59.4-45.6c-23,14.3-42.7,29.6-59.4,45.6
		C746.5,1298.4,766.3,1308.8,783.8,1320.5z"/>
</g>
</svg>
